Normalized EMG Linear Envelopes
nRows=273
nColumns=4

endheader
time	 med_gas_r	  soleus_r	 tib_ant_r	
2.59476	  0.093916	  0.063779	  0.027771	
2.62802	  0.094499	  0.065002	  0.027947	
2.66129	  0.095451	  0.065926	  0.027971	
2.69456	  0.096235	  0.066436	  0.027607	
2.72782	  0.096594	  0.066836	  0.027005	
2.76109	  0.096744	  0.067458	  0.026407	
2.79435	  0.097559	  0.068277	  0.025947	
2.82762	  0.099642	  0.069384	  0.025753	
2.86089	  0.102611	  0.070877	  0.025932	
2.89415	  0.105402	  0.072518	  0.026462	
2.92742	  0.106912	  0.073989	  0.027288	
2.96069	  0.106642	  0.074807	  0.028163	
2.99395	  0.104235	  0.074631	  0.028722	
3.02722	  0.099552	  0.073517	  0.028737	
3.06048	  0.093741	  0.071493	  0.028319	
3.09375	  0.088231	  0.068775	  0.027557	
3.12702	  0.083953	  0.065703	  0.026530	
3.16028	  0.081067	  0.062142	  0.025318	
3.19355	  0.079371	  0.058251	  0.023990	
3.22681	  0.078783	  0.054787	  0.022736	
3.26008	  0.079042	  0.052323	  0.021901	
3.29335	  0.079746	  0.051184	  0.021715	
3.32661	  0.080327	  0.051327	  0.022207	
3.35988	  0.080547	  0.052399	  0.023199	
3.39315	  0.080545	  0.053977	  0.024402	
3.42641	  0.080489	  0.055714	  0.025502	
3.45968	  0.080727	  0.057315	  0.026255	
3.49294	  0.081530	  0.058709	  0.026471	
3.52621	  0.082982	  0.060282	  0.026094	
3.55948	  0.084911	  0.062351	  0.025162	
3.59274	  0.087173	  0.064872	  0.023906	
3.62601	  0.089776	  0.067480	  0.022590	
3.65927	  0.092744	  0.069681	  0.021383	
3.69254	  0.095378	  0.071205	  0.020335	
3.72581	  0.097032	  0.072215	  0.019493	
3.75907	  0.097774	  0.072791	  0.018895	
3.79234	  0.097753	  0.072605	  0.018529	
3.8256	  0.097079	  0.071387	  0.018426	
3.85887	  0.095864	  0.069426	  0.018590	
3.89214	  0.094378	  0.067425	  0.018899	
3.9254	  0.093219	  0.065943	  0.019215	
3.95867	  0.092822	  0.065311	  0.019496	
3.99194	  0.092595	  0.065626	  0.019777	
4.0252	  0.091648	  0.066656	  0.020055	
4.05847	  0.089757	  0.067842	  0.020239	
4.09173	  0.087170	  0.068532	  0.020298	
4.125	  0.084447	  0.068735	  0.020307	
4.15827	  0.082327	  0.068638	  0.020313	
4.19153	  0.081272	  0.068586	  0.020399	
4.2248	  0.081244	  0.068824	  0.020631	
4.25806	  0.082020	  0.069331	  0.020946	
4.29133	  0.083361	  0.070073	  0.021230	
4.3246	  0.084988	  0.071210	  0.021382	
4.35786	  0.086630	  0.072807	  0.021456	
4.39113	  0.088114	  0.074455	  0.021517	
4.4244	  0.089140	  0.075961	  0.021600	
4.45766	  0.089880	  0.077296	  0.021660	
4.49093	  0.090654	  0.077827	  0.021730	
4.52419	  0.091703	  0.077150	  0.021807	
4.55746	  0.093161	  0.075595	  0.021904	
4.59073	  0.095076	  0.073244	  0.022071	
4.62399	  0.097170	  0.070305	  0.022227	
4.65726	  0.099127	  0.067114	  0.022272	
4.69052	  0.101034	  0.063884	  0.022176	
4.72379	  0.102407	  0.060914	  0.021975	
4.75706	  0.102721	  0.058634	  0.021735	
4.79032	  0.101831	  0.057424	  0.021464	
4.82359	  0.100077	  0.057345	  0.021177	
4.85685	  0.097921	  0.058185	  0.021049	
4.89012	  0.095930	  0.059670	  0.021145	
4.92339	  0.094703	  0.061470	  0.021417	
4.95665	  0.094485	  0.063307	  0.021829	
4.98992	  0.095138	  0.064976	  0.022365	
5.02319	  0.096221	  0.066004	  0.023087	
5.05645	  0.097537	  0.066108	  0.023884	
5.08972	  0.099060	  0.065448	  0.024659	
5.12298	  0.100705	  0.064148	  0.025367	
5.15625	  0.102045	  0.062493	  0.025892	
5.18952	  0.102765	  0.060921	  0.026031	
5.22278	  0.102547	  0.059712	  0.025607	
5.25605	  0.100573	  0.059110	  0.024533	
5.28931	  0.096323	  0.059315	  0.022851	
5.32258	  0.090584	  0.060245	  0.020578	
5.35585	  0.084485	  0.061614	  0.017760	
5.38911	  0.078918	  0.063087	  0.014600	
5.42238	  0.074451	  0.064228	  0.011388	
5.45565	  0.071461	  0.064503	  0.008599	
5.48891	  0.070720	  0.064178	  0.007199	
5.52218	  0.073148	  0.064521	  0.008950	
5.55544	  0.079354	  0.066861	  0.016173	
5.58871	  0.090133	  0.072711	  0.031544	
5.62198	  0.106380	  0.084136	  0.057939	
5.65524	  0.128778	  0.102970	  0.097999	
5.68851	  0.157820	  0.130374	  0.153359	
5.72177	  0.193217	  0.166221	  0.223575	
5.75504	  0.232895	  0.208361	  0.304569	
5.78831	  0.272626	  0.252306	  0.388215	
5.82157	  0.307584	  0.291613	  0.464624	
5.85484	  0.334971	  0.320494	  0.524241	
5.8881	  0.354967	  0.339546	  0.562578	
5.92137	  0.367991	  0.351056	  0.579871	
5.95464	  0.374722	  0.355446	  0.579043	
5.9879	  0.377561	  0.354349	  0.566414	
6.02117	  0.380110	  0.352674	  0.550231	
6.05444	  0.385577	  0.354837	  0.536957	
6.0877	  0.396330	  0.363027	  0.529327	
6.12097	  0.412810	  0.377042	  0.528704	
6.15423	  0.434792	  0.396291	  0.537091	
6.1875	  0.460167	  0.418830	  0.554273	
6.22077	  0.483549	  0.441238	  0.578430	
6.25403	  0.502614	  0.463234	  0.607051	
6.2873	  0.519208	  0.484905	  0.637539	
6.32056	  0.534732	  0.505182	  0.667857	
6.35383	  0.549390	  0.522893	  0.697170	
6.3871	  0.562668	  0.537736	  0.723060	
6.42036	  0.572388	  0.548857	  0.743430	
6.45363	  0.577993	  0.556131	  0.759020	
6.4869	  0.581625	  0.559944	  0.769855	
6.52016	  0.584072	  0.561848	  0.771711	
6.55343	  0.585808	  0.564481	  0.763546	
6.58669	  0.586943	  0.568495	  0.749891	
6.61996	  0.589975	  0.577372	  0.734216	
6.65323	  0.597951	  0.594415	  0.716347	
6.68649	  0.610672	  0.619077	  0.695461	
6.71976	  0.625709	  0.648350	  0.674617	
6.75302	  0.641071	  0.677694	  0.660054	
6.78629	  0.655243	  0.701009	  0.654865	
6.81956	  0.665800	  0.713346	  0.660357	
6.85282	  0.672720	  0.716498	  0.676870	
6.88609	  0.677626	  0.713624	  0.701064	
6.91935	  0.682029	  0.705301	  0.726278	
6.95262	  0.684573	  0.691705	  0.746772	
6.98589	  0.687426	  0.679610	  0.760409	
7.01915	  0.692725	  0.671271	  0.766368	
7.05242	  0.697848	  0.664561	  0.765419	
7.08569	  0.697066	  0.655627	  0.756849	
7.11895	  0.688289	  0.645455	  0.740125	
7.15222	  0.675376	  0.639455	  0.718416	
7.18548	  0.665072	  0.643057	  0.696837	
7.21875	  0.662059	  0.657293	  0.680122	
7.25202	  0.667882	  0.678660	  0.674369	
7.28528	  0.679656	  0.700870	  0.683438	
7.31855	  0.692947	  0.718603	  0.707950	
7.35181	  0.704075	  0.726241	  0.746249	
7.38508	  0.711222	  0.721727	  0.794453	
7.41835	  0.710712	  0.702462	  0.846022	
7.45161	  0.701794	  0.670585	  0.892003	
7.48488	  0.687086	  0.630881	  0.925285	
7.51815	  0.672363	  0.591455	  0.941348	
7.55141	  0.664255	  0.559787	  0.939093	
7.58468	  0.666017	  0.540238	  0.917402	
7.61794	  0.679101	  0.534658	  0.882021	
7.65121	  0.702638	  0.544414	  0.843720	
7.68448	  0.732337	  0.568958	  0.810921	
7.71774	  0.763672	  0.606246	  0.787660	
7.75101	  0.792256	  0.652570	  0.773407	
7.78427	  0.815032	  0.702582	  0.765162	
7.81754	  0.831995	  0.752250	  0.760327	
7.85081	  0.843446	  0.797390	  0.758221	
7.88407	  0.846198	  0.831958	  0.759882	
7.91734	  0.839212	  0.850437	  0.764748	
7.9506	  0.825036	  0.854271	  0.769274	
7.98387	  0.805005	  0.844483	  0.773411	
8.01714	  0.779690	  0.821527	  0.780226	
8.0504	  0.753626	  0.792115	  0.790491	
8.08367	  0.730501	  0.762324	  0.800483	
8.11694	  0.709759	  0.733781	  0.801554	
8.1502	  0.690078	  0.706651	  0.790930	
8.18347	  0.677369	  0.686961	  0.771146	
8.21673	  0.674361	  0.679153	  0.746847	
8.25	  0.677173	  0.681916	  0.722057	
8.28327	  0.681325	  0.691784	  0.700967	
8.31653	  0.683790	  0.704277	  0.686022	
8.3498	  0.681239	  0.714553	  0.679298	
8.38306	  0.673219	  0.721483	  0.680902	
8.41633	  0.662944	  0.729294	  0.688665	
8.4496	  0.652668	  0.738902	  0.702070	
8.48286	  0.643270	  0.744527	  0.721840	
8.51613	  0.632799	  0.738400	  0.746917	
8.5494	  0.621197	  0.719932	  0.773758	
8.58266	  0.611696	  0.692266	  0.798998	
8.61593	  0.606552	  0.660631	  0.818680	
8.64919	  0.608583	  0.634291	  0.833041	
8.68246	  0.620410	  0.621441	  0.844510	
8.71573	  0.642929	  0.624981	  0.854499	
8.74899	  0.674555	  0.643068	  0.859300	
8.78226	  0.710255	  0.671023	  0.854079	
8.81552	  0.741624	  0.700676	  0.841862	
8.84879	  0.763198	  0.725966	  0.826324	
8.88206	  0.773238	  0.742443	  0.808971	
8.91532	  0.772575	  0.749984	  0.792130	
8.94859	  0.764754	  0.750474	  0.779020	
8.98185	  0.757623	  0.751581	  0.771190	
9.01512	  0.753511	  0.755872	  0.767376	
9.04839	  0.747389	  0.758635	  0.766727	
9.08165	  0.736509	  0.757717	  0.768133	
9.11492	  0.720492	  0.751815	  0.772043	
9.14819	  0.701482	  0.741627	  0.779273	
9.18145	  0.682152	  0.726926	  0.788050	
9.21472	  0.664172	  0.707472	  0.793341	
9.24798	  0.648664	  0.684488	  0.788257	
9.28125	  0.635741	  0.660069	  0.770263	
9.31452	  0.624993	  0.636075	  0.742509	
9.34778	  0.617903	  0.616878	  0.710257	
9.38105	  0.616814	  0.606186	  0.678929	
9.41431	  0.622129	  0.605437	  0.653171	
9.44758	  0.631681	  0.614284	  0.635900	
9.48085	  0.641674	  0.630969	  0.627094	
9.51411	  0.648912	  0.651808	  0.624412	
9.54738	  0.651040	  0.670709	  0.624960	
9.58065	  0.646382	  0.682193	  0.625922	
9.61391	  0.635366	  0.682178	  0.627559	
9.64718	  0.620074	  0.668755	  0.629831	
9.68044	  0.601415	  0.640633	  0.631454	
9.71371	  0.579376	  0.599422	  0.632238	
9.74698	  0.557008	  0.551381	  0.632506	
9.78024	  0.536876	  0.503158	  0.632549	
9.81351	  0.520482	  0.460058	  0.633609	
9.84677	  0.507274	  0.425560	  0.637285	
9.88004	  0.494958	  0.401438	  0.641725	
9.91331	  0.481461	  0.386895	  0.641209	
9.94657	  0.465406	  0.379291	  0.630352	
9.97984	  0.447184	  0.377702	  0.608352	
10.0131	  0.427638	  0.381989	  0.577483	
10.0464	  0.407318	  0.390259	  0.539415	
10.0796	  0.387045	  0.396693	  0.494584	
10.1129	  0.367191	  0.393871	  0.444273	
10.1462	  0.349632	  0.377718	  0.390341	
10.1794	  0.334885	  0.349760	  0.335462	
10.2127	  0.321987	  0.315257	  0.282059	
10.246	  0.308018	  0.277692	  0.230492	
10.2792	  0.290140	  0.238309	  0.181921	
10.3125	  0.267784	  0.199911	  0.139202	
10.3458	  0.242179	  0.167018	  0.106231	
10.379	  0.214812	  0.141595	  0.085356	
10.4123	  0.187832	  0.123128	  0.077156	
10.4456	  0.164540	  0.110270	  0.080784	
10.4788	  0.146933	  0.101784	  0.094344	
10.5121	  0.135614	  0.096949	  0.114693	
10.5454	  0.130339	  0.094955	  0.137026	
10.5786	  0.130837	  0.095222	  0.154626	
10.6119	  0.136772	  0.097036	  0.161169	
10.6452	  0.147513	  0.099611	  0.154685	
10.6784	  0.161922	  0.102525	  0.139202	
10.7117	  0.178696	  0.105676	  0.119874	
10.745	  0.195947	  0.108207	  0.100825	
10.7782	  0.212653	  0.110010	  0.084653	
10.8115	  0.227222	  0.111820	  0.072575	
10.8448	  0.237244	  0.114175	  0.064363	
10.878	  0.240485	  0.116929	  0.058915	
10.9113	  0.236810	  0.119293	  0.055149	
10.9446	  0.228130	  0.120740	  0.051986	
10.9778	  0.217211	  0.121257	  0.048899	
11.0111	  0.206083	  0.120339	  0.046318	
11.0444	  0.195712	  0.116972	  0.044658	
11.0776	  0.186208	  0.111003	  0.043774	
11.1109	  0.178318	  0.104220	  0.043257	
11.1442	  0.174054	  0.098615	  0.042796	
11.1774	  0.174433	  0.095172	  0.042221	
11.2107	  0.179614	  0.093773	  0.041386	
11.244	  0.188147	  0.093712	  0.040321	
11.2772	  0.197606	  0.094750	  0.039335	
11.3105	  0.206665	  0.096868	  0.038842	
11.3437	  0.215333	  0.099677	  0.039101	
11.377	  0.223515	  0.102746	  0.039967	
11.4103	  0.229947	  0.105409	  0.041309	
11.4435	  0.232742	  0.108100	  0.043180	
11.4768	  0.230947	  0.111710	  0.045333	
11.5101	  0.224153	  0.116035	  0.047277	
11.5433	  0.213018	  0.120280	  0.048537	
11.5766	  0.200417	  0.124076	  0.049014	
11.6099	  0.189265	  0.128313	  0.048941	
11.6431	  0.181128	  0.134161	  0.048447	
